<?xml version="1.0" encoding="UTF-8" standalone="no"?>
<svg
   width="122.07291"
   zoomAndPan="magnify"
   viewBox="0 0 91.554679 91.554682"
   height="122.07291"
   preserveAspectRatio="xMidYMid"
   version="1.0"
   id="svg74"
   sodipodi:docname="logo-karina-lima.svg"
   xmlns:inkscape="http://www.inkscape.org/namespaces/inkscape"
   xmlns:sodipodi="http://sodipodi.sourceforge.net/DTD/sodipodi-0.dtd"
   xmlns="http://www.w3.org/2000/svg"
   xmlns:svg="http://www.w3.org/2000/svg">
  <sodipodi:namedview
     id="namedview74"
     pagecolor="#ffffff"
     bordercolor="#000000"
     borderopacity="0.25"
     inkscape:showpageshadow="2"
     inkscape:pageopacity="0.0"
     inkscape:pagecheckerboard="0"
     inkscape:deskcolor="#d1d1d1">
    <inkscape:page
       x="0"
       y="0"
       width="91.55468"
       height="91.55468"
       id="page1"
       margin="0"
       bleed="0" />
  </sodipodi:namedview>
  <defs
     id="defs6">
    <clipPath
       id="467741de5d">
      <path
         d="m 141.72266,111.25391 h 91.55468 v 91.55468 h -91.55468 z m 0,0"
         clip-rule="nonzero"
         id="path1" />
    </clipPath>
    <clipPath
       id="2c3ded20a1">
      <path
         d="M 187.5,111.25391 233.27734,157.03125 187.5,202.80859 141.72266,157.03125 Z m 0,0"
         clip-rule="nonzero"
         id="path2" />
    </clipPath>
    <clipPath
       id="8e1ea0712b">
      <path
         d="M 0.722656,0.253906 H 92.277344 V 91.808594 H 0.722656 Z m 0,0"
         clip-rule="nonzero"
         id="path3" />
    </clipPath>
    <clipPath
       id="cb9e870969">
      <path
         d="M 46.5,0.253906 92.277344,46.03125 46.5,91.808594 0.722656,46.03125 Z m 0,0"
         clip-rule="nonzero"
         id="path4" />
    </clipPath>
    <clipPath
       id="7709b904c9">
      <rect
         x="0"
         width="93"
         y="0"
         height="92"
         id="rect4" />
    </clipPath>
    <clipPath
       id="d81f8b9d54">
      <path
         d="m 176,135.76562 h 23 V 138 h -23 z m 0,0"
         clip-rule="nonzero"
         id="path5" />
    </clipPath>
    <clipPath
       id="bdc24b524f">
      <path
         d="m 161.52344,140 h 51.75 v 9 h -51.75 z m 0,0"
         clip-rule="nonzero"
         id="path6" />
    </clipPath>
  </defs>
  <g
     clip-path="url(#467741de5d)"
     id="g12"
     inkscape:export-filename="favicon.svg"
     inkscape:export-xdpi="75.495865"
     inkscape:export-ydpi="75.495865"
     transform="translate(-141.72266,-111.25391)">
    <g
       clip-path="url(#2c3ded20a1)"
       id="g11">
      <g
         transform="translate(141,111)"
         id="g10">
        <g
           clip-path="url(#7709b904c9)"
           id="g9">
          <g
             clip-path="url(#8e1ea0712b)"
             id="g8">
            <g
               clip-path="url(#cb9e870969)"
               id="g7">
              <path
                 fill="#ebebeb"
                 d="M 0.722656,0.253906 H 92.277344 V 91.808594 H 0.722656 Z m 0,0"
                 fill-opacity="1"
                 fill-rule="nonzero"
                 id="path7" />
            </g>
          </g>
        </g>
      </g>
    </g>
  </g>
  <g
     clip-path="url(#d81f8b9d54)"
     id="g13"
     transform="translate(-141.72266,-111.25391)">
    <path
       fill="#9f7918"
       d="m 176.00781,135.77734 h 22.98438 v 1.89844 h -22.98438 z m 0,0"
       fill-opacity="1"
       fill-rule="nonzero"
       id="path12" />
  </g>
  <path
     fill="#9f7918"
     d="m 30.35937,33.410151 h 30.83594 v 1.89453 H 30.35937 Z m 0,0"
     fill-opacity="1"
     fill-rule="nonzero"
     id="path13" />
  <path
     fill="#9f7918"
     d="m 53.0625,82.242181 c 1.53906,-0.55078 3.02343,-1.27343 4.4414,-2.14843 v -42.81641 h -4.4414 z m 0,0"
     fill-opacity="1"
     fill-rule="nonzero"
     id="path14" />
  <path
     fill="#9f7918"
     d="m 43.34765,83.378901 c 0.80078,0.0937 1.61328,0.14844 2.42969,0.14844 0.67969,0 1.34766,-0.043 2.01562,-0.10547 v -46.14453 h -4.44531 z m 0,0"
     fill-opacity="1"
     fill-rule="nonzero"
     id="path15" />
  <path
     fill="#9f7918"
     d="m 34.05078,80.093751 c 1.41797,0.875 2.90234,1.59765 4.4414,2.14843 v -44.96484 h -4.4414 z m 0,0"
     fill-opacity="1"
     fill-rule="nonzero"
     id="path16" />
  <g
     clip-path="url(#bdc24b524f)"
     id="g17"
     transform="translate(-141.72266,-111.25391)">
    <path
       fill="#9f7918"
       d="m 209.42578,140.10937 c -0.0117,0 -0.0234,0 -0.0352,0 h -43.78125 c -0.0117,0 -0.0234,0 -0.0352,0 -2.23438,0 -4.05078,1.81641 -4.05078,4.05079 0,2.23828 1.8164,4.05078 4.05078,4.05078 2.24219,0 4.05469,-1.8125 4.05469,-4.05078 0,-0.25391 -0.0273,-0.5 -0.0742,-0.74219 h -2.17578 c 0.0937,0.23047 0.14843,0.48047 0.14843,0.74219 0,1.07812 -0.87109,1.95312 -1.95312,1.95312 -1.07813,0 -1.94922,-0.875 -1.94922,-1.95312 0,-1.07813 0.87109,-1.95313 1.94922,-1.95313 0.0664,0 0.1289,0.0156 0.1914,0.0195 h 43.47266 c 0.0625,-0.004 0.12109,-0.0195 0.1875,-0.0195 1.07813,0 1.95313,0.875 1.95313,1.95313 0,1.07812 -0.875,1.95312 -1.95313,1.95312 -1.07812,0 -1.95312,-0.875 -1.95312,-1.95312 0,-0.26172 0.0547,-0.51172 0.14843,-0.74219 h -2.17578 c -0.043,0.24219 -0.0703,0.48828 -0.0703,0.74219 0,2.23828 1.8125,4.05078 4.05078,4.05078 2.23828,0 4.05078,-1.8125 4.05078,-4.05078 0,-2.23438 -1.8125,-4.05079 -4.05078,-4.05079 z m 0,0"
       fill-opacity="1"
       fill-rule="nonzero"
       id="path17" />
  </g>
</svg>
