<?xml version="1.0" encoding="UTF-8" standalone="no"?>
<svg
   width="193.6322"
   zoomAndPan="magnify"
   viewBox="0 0 145.22415 130.48331"
   height="173.97775"
   preserveAspectRatio="xMidYMid"
   version="1.0"
   id="svg74"
   sodipodi:docname="Logo advogado verde e cinza.zip - 1.svg"
   xmlns:inkscape="http://www.inkscape.org/namespaces/inkscape"
   xmlns:sodipodi="http://sodipodi.sourceforge.net/DTD/sodipodi-0.dtd"
   xmlns="http://www.w3.org/2000/svg"
   xmlns:svg="http://www.w3.org/2000/svg">
  <sodipodi:namedview
     id="namedview74"
     pagecolor="#ffffff"
     bordercolor="#000000"
     borderopacity="0.25"
     inkscape:showpageshadow="2"
     inkscape:pageopacity="0.0"
     inkscape:pagecheckerboard="0"
     inkscape:deskcolor="#d1d1d1">
    <inkscape:page
       x="0"
       y="0"
       width="145.22415"
       height="130.48331"
       id="page2"
       margin="0"
       bleed="0" />
  </sodipodi:namedview>
  <defs
     id="defs6">
    <clipPath
       id="467741de5d">
      <path
         d="m 141.72266,111.25391 h 91.55468 v 91.55468 h -91.55468 z m 0,0"
         clip-rule="nonzero"
         id="path1" />
    </clipPath>
    <clipPath
       id="2c3ded20a1">
      <path
         d="M 187.5,111.25391 233.27734,157.03125 187.5,202.80859 141.72266,157.03125 Z m 0,0"
         clip-rule="nonzero"
         id="path2" />
    </clipPath>
    <clipPath
       id="8e1ea0712b">
      <path
         d="M 0.722656,0.253906 H 92.277344 V 91.808594 H 0.722656 Z m 0,0"
         clip-rule="nonzero"
         id="path3" />
    </clipPath>
    <clipPath
       id="cb9e870969">
      <path
         d="M 46.5,0.253906 92.277344,46.03125 46.5,91.808594 0.722656,46.03125 Z m 0,0"
         clip-rule="nonzero"
         id="path4" />
    </clipPath>
    <clipPath
       id="7709b904c9">
      <rect
         x="0"
         width="93"
         y="0"
         height="92"
         id="rect4" />
    </clipPath>
    <clipPath
       id="d81f8b9d54">
      <path
         d="m 176,135.76562 h 23 V 138 h -23 z m 0,0"
         clip-rule="nonzero"
         id="path5" />
    </clipPath>
    <clipPath
       id="bdc24b524f">
      <path
         d="m 161.52344,140 h 51.75 v 9 h -51.75 z m 0,0"
         clip-rule="nonzero"
         id="path6" />
    </clipPath>
  </defs>
  <g
     clip-path="url(#467741de5d)"
     id="g12"
     inkscape:export-filename="../logo-karina-lima.png"
     inkscape:export-xdpi="396.62823"
     inkscape:export-ydpi="396.62823"
     transform="translate(-115.94149,-111.25391)">
    <g
       clip-path="url(#2c3ded20a1)"
       id="g11">
      <g
         transform="translate(141,111)"
         id="g10">
        <g
           clip-path="url(#7709b904c9)"
           id="g9">
          <g
             clip-path="url(#8e1ea0712b)"
             id="g8">
            <g
               clip-path="url(#cb9e870969)"
               id="g7">
              <path
                 fill="#ebebeb"
                 d="M 0.722656,0.253906 H 92.277344 V 91.808594 H 0.722656 Z m 0,0"
                 fill-opacity="1"
                 fill-rule="nonzero"
                 id="path7" />
            </g>
          </g>
        </g>
      </g>
    </g>
  </g>
  <g
     clip-path="url(#d81f8b9d54)"
     id="g13"
     transform="translate(-115.94149,-111.25391)">
    <path
       fill="#9f7918"
       d="m 176.00781,135.77734 h 22.98438 v 1.89844 h -22.98438 z m 0,0"
       fill-opacity="1"
       fill-rule="nonzero"
       id="path12" />
  </g>
  <path
     fill="#9f7918"
     d="m 56.14054,33.410151 h 30.83594 v 1.89453 H 56.14054 Z m 0,0"
     fill-opacity="1"
     fill-rule="nonzero"
     id="path13" />
  <path
     fill="#9f7918"
     d="m 78.84367,82.242181 c 1.53906,-0.55078 3.02343,-1.27343 4.4414,-2.14843 v -42.81641 h -4.4414 z m 0,0"
     fill-opacity="1"
     fill-rule="nonzero"
     id="path14" />
  <path
     fill="#9f7918"
     d="m 69.12882,83.378901 c 0.80078,0.0937 1.61328,0.14844 2.42969,0.14844 0.67969,0 1.34766,-0.043 2.01562,-0.10547 v -46.14453 h -4.44531 z m 0,0"
     fill-opacity="1"
     fill-rule="nonzero"
     id="path15" />
  <path
     fill="#9f7918"
     d="m 59.83195,80.093751 c 1.41797,0.875 2.90234,1.59765 4.4414,2.14843 v -44.96484 h -4.4414 z m 0,0"
     fill-opacity="1"
     fill-rule="nonzero"
     id="path16" />
  <g
     clip-path="url(#bdc24b524f)"
     id="g17"
     transform="translate(-115.94149,-111.25391)">
    <path
       fill="#9f7918"
       d="m 209.42578,140.10937 c -0.0117,0 -0.0234,0 -0.0352,0 h -43.78125 c -0.0117,0 -0.0234,0 -0.0352,0 -2.23438,0 -4.05078,1.81641 -4.05078,4.05079 0,2.23828 1.8164,4.05078 4.05078,4.05078 2.24219,0 4.05469,-1.8125 4.05469,-4.05078 0,-0.25391 -0.0273,-0.5 -0.0742,-0.74219 h -2.17578 c 0.0937,0.23047 0.14843,0.48047 0.14843,0.74219 0,1.07812 -0.87109,1.95312 -1.95312,1.95312 -1.07813,0 -1.94922,-0.875 -1.94922,-1.95312 0,-1.07813 0.87109,-1.95313 1.94922,-1.95313 0.0664,0 0.1289,0.0156 0.1914,0.0195 h 43.47266 c 0.0625,-0.004 0.12109,-0.0195 0.1875,-0.0195 1.07813,0 1.95313,0.875 1.95313,1.95313 0,1.07812 -0.875,1.95312 -1.95313,1.95312 -1.07812,0 -1.95312,-0.875 -1.95312,-1.95312 0,-0.26172 0.0547,-0.51172 0.14843,-0.74219 h -2.17578 c -0.043,0.24219 -0.0703,0.48828 -0.0703,0.74219 0,2.23828 1.8125,4.05078 4.05078,4.05078 2.23828,0 4.05078,-1.8125 4.05078,-4.05078 0,-2.23438 -1.8125,-4.05079 -4.05078,-4.05079 z m 0,0"
       fill-opacity="1"
       fill-rule="nonzero"
       id="path17" />
  </g>
  <g
     fill="#ebebeb"
     fill-opacity="1"
     id="g20"
     transform="translate(-115.94149,-111.25391)">
    <g
       transform="translate(113.78524,227.36287)"
       id="g19">
      <g
         id="g18">
        <path
           d="m 6.25,-6.21875 -2.703125,2.75 V 0 H 2.15625 v -13.21875 h 1.390625 v 7.984375 L 11.3125,-13.21875 h 1.609375 L 7.203125,-7.234375 13.3125,0 h -1.65625 z m 0,0"
           id="path18" />
      </g>
    </g>
  </g>
  <g
     fill="#ebebeb"
     fill-opacity="1"
     id="g23"
     transform="translate(-115.94149,-111.25391)">
    <g
       transform="translate(129.09703,227.36287)"
       id="g22">
      <g
         id="g21">
        <path
           d="m 10.453125,-3.53125 h -7.375 L 1.5,0 H 0.03125 L 6.078125,-13.21875 H 7.46875 L 13.5,0 H 12.03125 Z M 9.9375,-4.671875 6.765625,-11.765625 3.59375,-4.671875 Z m 0,0"
           id="path20" />
      </g>
    </g>
  </g>
  <g
     fill="#ebebeb"
     fill-opacity="1"
     id="g26"
     transform="translate(-115.94149,-111.25391)">
    <g
       transform="translate(144.5221,227.36287)"
       id="g25">
      <g
         id="g24">
        <path
           d="M 11.1875,0 8.15625,-4.25 c -0.335938,0.042969 -0.683594,0.0625 -1.046875,0.0625 h -3.5625 V 0 H 2.15625 v -13.21875 h 4.953125 c 1.6875,0 3.003906,0.402344 3.953125,1.203125 0.957031,0.804687 1.4375,1.914063 1.4375,3.328125 0,1.03125 -0.261719,1.90625 -0.78125,2.625 -0.523438,0.710938 -1.265625,1.21875 -2.234375,1.53125 L 12.71875,0 Z m -4.125,-5.390625 c 1.3125,0 2.3125,-0.285156 3,-0.859375 0.695312,-0.582031 1.046875,-1.394531 1.046875,-2.4375 0,-1.070312 -0.351563,-1.894531 -1.046875,-2.46875 -0.6875,-0.570312 -1.6875,-0.859375 -3,-0.859375 H 3.546875 v 6.625 z m 0,0"
           id="path23" />
      </g>
    </g>
  </g>
  <g
     fill="#ebebeb"
     fill-opacity="1"
     id="g29"
     transform="translate(-115.94149,-111.25391)">
    <g
       transform="translate(160.06043,227.36287)"
       id="g28">
      <g
         id="g27">
        <path
           d="M 2.15625,-13.21875 H 3.546875 V 0 H 2.15625 Z m 0,0"
           id="path26" />
      </g>
    </g>
  </g>
  <g
     fill="#ebebeb"
     fill-opacity="1"
     id="g32"
     transform="translate(-115.94149,-111.25391)">
    <g
       transform="translate(167.65078,227.36287)"
       id="g31">
      <g
         id="g30">
        <path
           d="M 13.203125,-13.21875 V 0 h -1.15625 l -8.5,-10.734375 V 0 H 2.15625 V -13.21875 H 3.3125 L 11.828125,-2.5 v -10.71875 z m 0,0"
           id="path29" />
      </g>
    </g>
  </g>
  <g
     fill="#ebebeb"
     fill-opacity="1"
     id="g35"
     transform="translate(-115.94149,-111.25391)">
    <g
       transform="translate(184.88821,227.36287)"
       id="g34">
      <g
         id="g33">
        <path
           d="m 10.453125,-3.53125 h -7.375 L 1.5,0 H 0.03125 L 6.078125,-13.21875 H 7.46875 L 13.5,0 H 12.03125 Z M 9.9375,-4.671875 6.765625,-11.765625 3.59375,-4.671875 Z m 0,0"
           id="path32" />
      </g>
    </g>
  </g>
  <g
     fill="#ebebeb"
     fill-opacity="1"
     id="g41"
     transform="translate(-115.94149,-111.25391)">
    <g
       transform="translate(207.14848,227.36287)"
       id="g40">
      <g
         id="g39">
        <path
           d="m 2.15625,-13.21875 h 1.390625 v 12.015625 h 7.40625 V 0 H 2.15625 Z m 0,0"
           id="path38" />
      </g>
    </g>
  </g>
  <g
     fill="#ebebeb"
     fill-opacity="1"
     id="g44"
     transform="translate(-115.94149,-111.25391)">
    <g
       transform="translate(220.15706,227.36287)"
       id="g43">
      <g
         id="g42">
        <path
           d="M 2.15625,-13.21875 H 3.546875 V 0 H 2.15625 Z m 0,0"
           id="path41" />
      </g>
    </g>
  </g>
  <g
     fill="#ebebeb"
     fill-opacity="1"
     id="g47"
     transform="translate(-115.94149,-111.25391)">
    <g
       transform="translate(227.74741,227.36287)"
       id="g46">
      <g
         id="g45">
        <path
           d="M 15.890625,-13.21875 V 0 h -1.34375 V -10.578125 L 9.34375,-1.6875 H 8.6875 L 3.5,-10.515625 V 0 H 2.15625 V -13.21875 H 3.3125 l 5.734375,9.796875 5.6875,-9.796875 z m 0,0"
           id="path44" />
      </g>
    </g>
  </g>
  <g
     fill="#ebebeb"
     fill-opacity="1"
     id="g50"
     transform="translate(-115.94149,-111.25391)">
    <g
       transform="translate(247.66563,227.36287)"
       id="g49">
      <g
         id="g48">
        <path
           d="m 10.453125,-3.53125 h -7.375 L 1.5,0 H 0.03125 L 6.078125,-13.21875 H 7.46875 L 13.5,0 H 12.03125 Z M 9.9375,-4.671875 6.765625,-11.765625 3.59375,-4.671875 Z m 0,0"
           id="path47" />
      </g>
    </g>
  </g>
  <g
     fill="#ebebeb"
     fill-opacity="1"
     id="g53"
     transform="translate(-115.94149,-111.25391)">
    <g
       transform="translate(150.82425,241.61222)"
       id="g52">
      <g
         id="g51">
        <path
           d="M 5.421875,-1.5 H 2.1875 L 1.5625,0 h -1.65625 l 3.109375,-6.984375 h 1.59375 L 7.734375,0 h -1.6875 z m -0.5,-1.21875 L 3.8125,-5.390625 2.703125,-2.71875 Z m 0,0"
           id="path50" />
      </g>
    </g>
  </g>
  <g
     fill="#ebebeb"
     fill-opacity="1"
     id="g56"
     transform="translate(-115.94149,-111.25391)">
    <g
       transform="translate(159.95032,241.61222)"
       id="g55">
      <g
         id="g54">
        <path
           d="M 0.828125,-6.984375 H 4 c 0.757812,0 1.425781,0.148437 2,0.4375 0.582031,0.292969 1.035156,0.703125 1.359375,1.234375 0.320313,0.523438 0.484375,1.132812 0.484375,1.828125 0,0.699219 -0.164062,1.308594 -0.484375,1.828125 C 7.035156,-1.132812 6.582031,-0.726562 6,-0.4375 5.425781,-0.144531 4.757812,0 4,0 H 0.828125 Z m 3.09375,5.65625 c 0.695313,0 1.25,-0.191406 1.65625,-0.578125 0.414063,-0.394531 0.625,-0.921875 0.625,-1.578125 0,-0.664063 -0.210937,-1.191406 -0.625,-1.578125 -0.40625,-0.394531 -0.960937,-0.59375 -1.65625,-0.59375 H 2.4375 v 4.328125 z m 0,0"
           id="path53" />
      </g>
    </g>
  </g>
  <g
     fill="#ebebeb"
     fill-opacity="1"
     id="g59"
     transform="translate(-115.94149,-111.25391)">
    <g
       transform="translate(169.67405,241.61222)"
       id="g58">
      <g
         id="g57">
        <path
           d="M 7.53125,-6.984375 4.515625,0 H 2.921875 L -0.09375,-6.984375 h 1.75 L 3.78125,-2 5.9375,-6.984375 Z m 0,0"
           id="path56" />
      </g>
    </g>
  </g>
  <g
     fill="#ebebeb"
     fill-opacity="1"
     id="g62"
     transform="translate(-115.94149,-111.25391)">
    <g
       transform="translate(178.6009,241.61222)"
       id="g61">
      <g
         id="g60">
        <path
           d="M 4.203125,0.125 C 3.484375,0.125 2.832031,-0.03125 2.25,-0.34375 1.664062,-0.65625 1.207031,-1.085938 0.875,-1.640625 0.550781,-2.191406 0.390625,-2.804688 0.390625,-3.484375 c 0,-0.6875 0.160156,-1.300781 0.484375,-1.84375 C 1.207031,-5.878906 1.664062,-6.3125 2.25,-6.625 c 0.582031,-0.3125 1.234375,-0.46875 1.953125,-0.46875 0.726563,0 1.378906,0.15625 1.953125,0.46875 0.582031,0.3125 1.039062,0.746094 1.375,1.296875 0.332031,0.542969 0.5,1.15625 0.5,1.84375 0,0.679687 -0.167969,1.292969 -0.5,1.84375 C 7.195312,-1.085938 6.738281,-0.65625 6.15625,-0.34375 5.582031,-0.03125 4.929688,0.125 4.203125,0.125 Z m 0,-1.375 c 0.414063,0 0.789063,-0.09375 1.125,-0.28125 0.332031,-0.195312 0.59375,-0.460938 0.78125,-0.796875 0.1875,-0.34375 0.28125,-0.726563 0.28125,-1.15625 0,-0.4375 -0.09375,-0.820313 -0.28125,-1.15625 C 5.921875,-4.984375 5.660156,-5.25 5.328125,-5.4375 4.992188,-5.625 4.617188,-5.71875 4.203125,-5.71875 3.796875,-5.71875 3.425781,-5.625 3.09375,-5.4375 2.757812,-5.25 2.5,-4.984375 2.3125,-4.640625 c -0.1875,0.335937 -0.28125,0.71875 -0.28125,1.15625 0,0.429687 0.09375,0.8125 0.28125,1.15625 C 2.5,-1.992188 2.757812,-1.726562 3.09375,-1.53125 3.425781,-1.34375 3.796875,-1.25 4.203125,-1.25 Z m 0,0"
           id="path59" />
      </g>
    </g>
  </g>
  <g
     fill="#ebebeb"
     fill-opacity="1"
     id="g65"
     transform="translate(-115.94149,-111.25391)">
    <g
       transform="translate(188.50393,241.61222)"
       id="g64">
      <g
         id="g63">
        <path
           d="m 5.546875,-3.59375 h 1.46875 v 2.828125 c -0.375,0.28125 -0.8125,0.5 -1.3125,0.65625 -0.5,0.15625 -1,0.234375 -1.5,0.234375 -0.730469,0 -1.386719,-0.15625 -1.96875,-0.46875 C 1.660156,-0.65625 1.207031,-1.082031 0.875,-1.625 0.550781,-2.175781 0.390625,-2.796875 0.390625,-3.484375 c 0,-0.695313 0.160156,-1.316406 0.484375,-1.859375 0.332031,-0.550781 0.789062,-0.976562 1.375,-1.28125 0.582031,-0.3125 1.242188,-0.46875 1.984375,-0.46875 0.601563,0 1.15625,0.105469 1.65625,0.3125 0.5,0.199219 0.914063,0.496094 1.25,0.890625 L 6.109375,-4.9375 c -0.5,-0.519531 -1.101563,-0.78125 -1.796875,-0.78125 -0.449219,0 -0.84375,0.09375 -1.1875,0.28125 -0.34375,0.1875 -0.617188,0.453125 -0.8125,0.796875 -0.1875,0.335937 -0.28125,0.71875 -0.28125,1.15625 0,0.429687 0.09375,0.8125 0.28125,1.15625 0.195312,0.335937 0.460938,0.601563 0.796875,0.796875 0.34375,0.1875 0.734375,0.28125 1.171875,0.28125 0.46875,0 0.890625,-0.101562 1.265625,-0.3125 z m 0,0"
           id="path62" />
      </g>
    </g>
  </g>
  <g
     fill="#ebebeb"
     fill-opacity="1"
     id="g68"
     transform="translate(-115.94149,-111.25391)">
    <g
       transform="translate(197.6798,241.61222)"
       id="g67">
      <g
         id="g66">
        <path
           d="M 5.421875,-1.5 H 2.1875 L 1.5625,0 h -1.65625 l 3.109375,-6.984375 h 1.59375 L 7.734375,0 h -1.6875 z m -0.5,-1.21875 L 3.8125,-5.390625 2.703125,-2.71875 Z m 0,0"
           id="path65" />
      </g>
    </g>
  </g>
  <g
     fill="#ebebeb"
     fill-opacity="1"
     id="g71"
     transform="translate(-115.94149,-111.25391)">
    <g
       transform="translate(206.80587,241.61222)"
       id="g70">
      <g
         id="g69">
        <path
           d="M 0.828125,-6.984375 H 4 c 0.757812,0 1.425781,0.148437 2,0.4375 0.582031,0.292969 1.035156,0.703125 1.359375,1.234375 0.320313,0.523438 0.484375,1.132812 0.484375,1.828125 0,0.699219 -0.164062,1.308594 -0.484375,1.828125 C 7.035156,-1.132812 6.582031,-0.726562 6,-0.4375 5.425781,-0.144531 4.757812,0 4,0 H 0.828125 Z m 3.09375,5.65625 c 0.695313,0 1.25,-0.191406 1.65625,-0.578125 0.414063,-0.394531 0.625,-0.921875 0.625,-1.578125 0,-0.664063 -0.210937,-1.191406 -0.625,-1.578125 -0.40625,-0.394531 -0.960937,-0.59375 -1.65625,-0.59375 H 2.4375 v 4.328125 z m 0,0"
           id="path68" />
      </g>
    </g>
  </g>
  <g
     fill="#ebebeb"
     fill-opacity="1"
     id="g74"
     transform="translate(-115.94149,-111.25391)">
    <g
       transform="translate(216.5296,241.61222)"
       id="g73">
      <g
         id="g72">
        <path
           d="M 5.421875,-1.5 H 2.1875 L 1.5625,0 h -1.65625 l 3.109375,-6.984375 h 1.59375 L 7.734375,0 h -1.6875 z m -0.5,-1.21875 L 3.8125,-5.390625 2.703125,-2.71875 Z m 0,0"
           id="path71" />
      </g>
    </g>
  </g>
</svg>
